<svg width="1024" height="1024" viewBox="0 0 1024 1024" fill="none" xmlns="http://www.w3.org/2000/svg">
<circle cx="512" cy="512" r="512" fill="#000000"/>
<path d="M675.464 257.811L690.598 222.338C694.04 214.27 705.461 214.227 708.964 222.269L724.753 258.523C733.991 279.734 750.802 296.74 771.905 306.221L811.407 323.968C819.322 327.524 819.263 338.782 811.311 342.254L773.107 358.937C751.278 368.469 733.939 386.013 724.664 407.952L709.007 444.988C705.551 453.162 693.953 453.119 690.557 444.92L675.54 408.659C666.278 386.294 648.661 368.422 626.432 358.84L588.001 342.273C579.991 338.82 579.932 327.485 587.905 323.948L627.628 306.331C649.137 296.791 666.231 279.453 675.464 257.811Z" fill="#FFFFFF"/>
<path d="M590.017 248.119H368.444C350.771 248.119 336.444 262.446 336.444 280.119V786.582L473.273 672.934C489.442 659.504 512.852 659.386 529.156 672.652L665.351 783.465L663.916 514.107C663.822 496.345 678.195 481.895 695.958 481.895C713.654 481.895 728 496.24 728 513.937V806.561C728 836.627 703.627 861 673.561 861C663.063 861 652.895 857.336 644.809 850.641L501.098 731.644L358.224 849.949C349.598 857.092 338.749 861 327.55 861C298.527 861 275 837.473 275 808.45V297C275 235.144 325.144 185 387 185H590.017C607.447 185 621.577 199.13 621.577 216.56C621.577 233.99 607.447 248.119 590.017 248.119Z" fill="#FFFFFF"/>
</svg>
